<svg width="256" height="256" viewBox="0 0 256 256" fill="none" xmlns="http://www.w3.org/2000/svg">
<path fill-rule="evenodd" clip-rule="evenodd" d="M70.6843 50.4123C84.9308 45.176 100.644 42.703 116.34 43.2745C126.749 37.9986 139.47 33.6771 154.491 34.514C146.316 30.1394 137.716 27.6809 129.554 27.6809C115.886 27.6809 104.542 29.1489 94.5929 33.1181C86.0474 36.5275 78.192 41.9191 70.6843 50.4123ZM187.085 42.2186C183.841 38.4754 180.298 34.9947 176.54 31.8426C163.18 20.6365 146.399 13 129.554 13C114.945 13 101.521 14.548 89.1526 19.4824C76.665 24.4646 65.7165 32.7121 55.7716 45.3933C51.2251 51.1908 47.9403 57.3406 45.7145 63.6472C29.177 75.7383 17.0569 93.0612 13.9801 115.043C9.5585 146.631 20.625 170.077 36.5744 186.513C41.3092 191.392 46.4604 195.644 51.7459 199.324C54.3539 205.084 57.8216 210.661 62.3758 215.82C71.5618 226.227 84.7754 234.483 103.137 239.285C136.177 247.926 166.648 241.487 194.339 220.038C204.477 212.185 210.217 201.811 213.266 190.746C219.459 184.619 225.507 177.155 231.347 168.243C244.127 148.741 244.757 128.416 240.975 111.359C237.225 94.4477 229.096 80.4311 223.77 72.6458C218.394 64.7882 211.477 56.6482 201.341 49.8361C197.12 47 192.402 44.4346 187.085 42.2186ZM178.207 54.5077C172.64 52.4733 166.202 50.8149 158.691 49.6889C155.295 49.1798 152.05 49.004 148.938 49.103C150.051 49.4752 151.158 49.8655 152.258 50.2738C167.636 55.9799 180.162 64.9397 189.82 76.2918C187.574 68.7024 183.527 61.2393 178.207 54.5077ZM208.406 110.475C208.55 97.7448 207.272 85.469 204.686 75.0261C204.328 73.5799 203.92 72.1428 203.464 70.7166C206.582 73.9732 209.246 77.4172 211.653 80.9354C216.402 87.8764 223.449 100.135 226.642 114.537C229.804 128.794 229.145 144.819 219.068 160.196C218.147 161.602 217.225 162.961 216.302 164.276C216.168 151.002 214.119 137.853 212.361 127.143C211.418 121.4 210.1 115.83 208.406 110.475ZM193.681 112.675C185.861 89.8689 170.21 72.5938 147.151 64.0377C138.372 60.7804 129.079 58.846 119.706 58.1596C115.904 60.2856 112.292 62.5777 108.801 64.793C106.884 66.0098 105.003 67.2035 103.147 68.3338C94.2238 73.7683 85.4324 82.8207 78.2618 93.5946C72.6004 102.101 68.1451 111.387 65.459 120.32C70.5036 129.868 77.0529 137.56 83.3629 141.935L83.8775 142.291L84.3242 142.73C85.7048 144.086 87.8595 145.455 90.6582 146.69C90.5053 145.723 90.3796 144.76 90.2819 143.805C90.2649 143.639 90.2478 143.472 90.2304 143.303C88.9415 130.734 86.6325 108.218 107.182 90.8229C127.983 73.2137 156.714 83.6099 166.351 102.972C169.357 109.011 173.014 119.085 171.686 129.869C170.276 141.32 163.39 152.327 147.74 159.542C137.132 164.433 124.963 166.26 113.628 165.995C114.778 167.875 116.033 169.743 117.389 171.582C124.584 181.342 134.216 189.738 145.028 194.486C146.737 195.236 148.474 195.896 150.238 196.456C161.885 190.346 170.227 182.579 174.256 177.67C183.556 166.343 189.56 149.138 192.2 130.481C193.041 124.538 193.527 118.546 193.681 112.675ZM175.246 197.235C179.79 193.428 183.284 189.81 185.603 186.986C192.535 178.542 197.685 167.997 201.319 156.63C201.694 162.308 201.765 168.001 201.338 173.534C201.083 176.837 200.655 180.023 200.025 183.069C193.082 189.342 186.269 193.412 179.788 195.807C178.267 196.369 176.753 196.844 175.246 197.235ZM130.945 203.691C120.883 197.66 112.244 189.345 105.572 180.293C101.715 175.061 98.4314 169.469 95.8902 163.783C87.3443 161.775 79.6017 158.405 74.5095 153.656C69.8357 150.331 65.3105 145.896 61.195 140.66C59.4282 151.534 58.1375 165.322 60.6693 178.847C61.3538 182.504 62.3131 186.102 63.6067 189.588C73.2311 195.718 83.2209 199.854 91.361 202.295C105.99 206.681 119.351 206.398 130.945 203.691ZM84.2621 215.452C85.2448 215.774 86.2065 216.076 87.1446 216.357C112.606 223.991 134.723 219.781 151.776 212.031C161.607 214.122 172.145 213.852 182.917 210.266C159.422 227.52 134.397 232.285 106.852 225.082C97.6298 222.67 90.2218 219.352 84.2621 215.452ZM45.1727 174.219C33.0495 160.788 24.9841 142.333 28.5192 117.078C30.1277 105.587 34.8735 95.5063 41.9293 87.064C41.9912 94.1238 43.0419 101.084 44.8091 107.681C46.1153 112.557 47.8308 117.309 49.8705 121.836C49.6684 122.711 49.481 123.584 49.309 124.455C49.1726 125.145 49.0205 125.897 48.857 126.705C46.8562 136.595 43.1348 154.989 45.1727 174.219ZM57.96 99.5153C56.1504 90.6328 56.0431 81.5113 58.2672 72.8187C62.3964 70.1646 66.8478 67.8343 71.5573 65.8455C77.0705 63.5173 82.8901 61.6825 88.8878 60.3631C80.2698 67.0106 72.4439 75.8389 66.0402 85.4605C63.0538 89.9476 60.3332 94.6724 57.96 99.5153ZM106.656 150.795C107.149 150.854 107.647 150.909 108.151 150.96C119.416 152.091 131.74 150.752 141.594 146.21C152.989 140.956 156.373 134.097 157.115 128.075C157.939 121.386 155.629 114.378 153.208 109.514C147.181 97.4049 129.15 91.4606 116.667 102.028C102.23 114.249 103.58 129.531 104.887 142.312C105.161 144.996 105.757 147.849 106.656 150.795Z" fill="#F83889"/>
</svg>
